<svg width="1406" height="190" viewBox="0 0 1406 190" fill="none" xmlns="http://www.w3.org/2000/svg">
<path d="M1321.07 186.385V181.222C1326.4 180.878 1330.36 180.189 1332.94 179.157C1335.69 178.124 1337.5 176.059 1338.36 172.961C1339.39 169.863 1339.91 165.217 1339.91 159.021V30.9782C1339.91 24.6105 1339.39 19.9638 1338.36 17.0381C1337.5 13.9403 1335.69 11.8751 1332.94 10.8425C1330.36 9.63777 1326.4 8.94937 1321.07 8.77727V3.61426C1326.06 3.78636 1332.51 3.95845 1340.43 4.13055C1348.34 4.30265 1356.26 4.3887 1364.18 4.3887C1372.61 4.3887 1380.44 4.30265 1387.67 4.13055C1395.07 3.95845 1401.01 3.78636 1405.48 3.61426V8.77727C1400.15 8.94937 1396.1 9.63777 1393.35 10.8425C1390.59 11.8751 1388.79 13.9403 1387.93 17.0381C1387.07 19.9638 1386.64 24.6105 1386.64 30.9782V159.021C1386.64 165.217 1387.07 169.863 1387.93 172.961C1388.96 176.059 1390.77 178.124 1393.35 179.157C1396.1 180.189 1400.15 180.878 1405.48 181.222V186.385C1401.01 186.041 1395.07 185.869 1387.67 185.869C1380.44 185.697 1372.61 185.611 1364.18 185.611C1356.26 185.611 1348.34 185.697 1340.43 185.869C1332.51 185.869 1326.06 186.041 1321.07 186.385ZM1211.09 186.385V181.222C1216.43 180.878 1220.39 180.189 1222.97 179.157C1225.72 178.124 1227.53 176.059 1228.39 172.961C1229.42 169.863 1229.94 165.217 1229.94 159.021V30.9782C1229.94 24.6105 1229.42 19.9638 1228.39 17.0381C1227.53 13.9403 1225.72 11.8751 1222.97 10.8425C1220.39 9.63777 1216.43 8.94937 1211.09 8.77727V3.61426C1215.74 3.78636 1221.94 3.95845 1229.68 4.13055C1237.42 4.30265 1245.69 4.3887 1254.46 4.3887C1262.04 4.3887 1269.52 4.30265 1276.92 4.13055C1284.49 3.95845 1290.69 3.78636 1295.51 3.61426V8.77727C1290.17 8.94937 1286.13 9.63777 1283.38 10.8425C1280.62 11.8751 1278.81 13.9403 1277.95 17.0381C1277.09 19.9638 1276.66 24.6105 1276.66 30.9782V159.021C1276.66 165.217 1277.09 169.863 1277.95 172.961C1278.99 176.059 1280.79 178.124 1283.38 179.157C1286.13 180.189 1290.17 180.878 1295.51 181.222V186.385C1290.69 186.041 1284.49 185.869 1276.92 185.869C1269.52 185.697 1262.04 185.611 1254.46 185.611C1245.69 185.611 1237.42 185.697 1229.68 185.869C1221.94 185.869 1215.74 186.041 1211.09 186.385ZM1257.3 97.0649V91.9019H1359.27V97.0649H1257.3Z" fill="white"/>
<path d="M1196.99 3.61426C1196.31 13.0798 1195.79 22.2011 1195.45 30.9782C1195.27 39.7554 1195.19 46.4673 1195.19 51.114C1195.19 54.9002 1195.27 58.4283 1195.45 61.6982C1195.62 64.9681 1195.79 67.8078 1195.96 70.2172H1190.02C1186.58 54.9002 1182.45 42.8532 1177.63 34.0761C1172.81 25.1268 1167.31 18.8452 1161.11 15.231C1155.09 11.4448 1148.55 9.55171 1141.49 9.55171H1138.39V156.956C1138.39 164.012 1139.08 169.261 1140.46 172.703C1142.01 176.145 1144.76 178.468 1148.72 179.673C1152.85 180.706 1158.79 181.222 1166.53 181.222V186.385C1160.85 186.213 1153.19 186.041 1143.56 185.869C1134.09 185.697 1124.2 185.611 1113.87 185.611C1103.72 185.611 1094.16 185.697 1085.22 185.869C1076.27 186.041 1069.04 186.213 1063.53 186.385V181.222C1071.27 181.222 1077.21 180.706 1081.34 179.673C1085.47 178.468 1088.23 176.145 1089.6 172.703C1090.98 169.261 1091.67 164.012 1091.67 156.956V9.55171H1088.83C1081.6 9.55171 1074.98 11.4448 1068.95 15.231C1062.93 18.8452 1057.51 25.0408 1052.69 33.8179C1047.87 42.595 1043.65 54.7281 1040.04 70.2172H1034.1C1034.45 67.8078 1034.62 64.9681 1034.62 61.6982C1034.79 58.4283 1034.88 54.9002 1034.88 51.114C1034.88 46.4673 1034.7 39.7554 1034.36 30.9782C1034.19 22.2011 1033.76 13.0798 1033.07 3.61426C1041.16 3.78636 1050.02 3.95845 1059.66 4.13055C1069.47 4.30265 1079.19 4.3887 1088.83 4.3887C1098.47 4.3887 1107.24 4.3887 1115.16 4.3887C1123.08 4.3887 1131.85 4.3887 1141.49 4.3887C1151.3 4.3887 1161.03 4.30265 1170.66 4.13055C1180.3 3.95845 1189.08 3.78636 1196.99 3.61426Z" fill="white"/>
<path d="M922.434 0C941.365 0 957.886 3.70017 971.999 11.1005C986.111 18.5008 997.039 29.1711 1004.78 43.1112C1012.7 56.8793 1016.66 73.6591 1016.66 93.4506C1016.66 112.726 1012.61 129.592 1004.53 144.048C996.609 158.505 985.509 169.777 971.224 177.866C956.94 185.955 940.59 189.999 922.176 189.999C903.417 189.999 886.895 186.299 872.61 178.899C858.498 171.498 847.484 160.828 839.567 146.888C831.822 132.948 827.95 116.168 827.95 96.5484C827.95 77.2732 831.995 60.4073 840.083 45.9509C848.344 31.4944 859.531 20.2218 873.643 12.1331C887.755 4.04437 904.019 0 922.434 0ZM921.401 4.64672C912.28 4.64672 904.363 8.51898 897.651 16.2635C890.939 24.008 885.69 34.6783 881.904 48.2742C878.29 61.8702 876.483 77.6174 876.483 95.5158C876.483 113.759 878.548 129.678 882.678 143.274C886.981 156.698 892.66 167.11 899.716 174.51C906.772 181.738 914.603 185.352 923.208 185.352C932.329 185.352 940.246 181.48 946.958 173.736C953.842 165.991 959.091 155.321 962.705 141.725C966.319 127.957 968.126 112.21 968.126 94.4832C968.126 76.0685 966.061 60.1492 961.931 46.7253C957.8 33.3015 952.121 22.9754 944.893 15.7472C937.837 8.34688 930.006 4.64672 921.401 4.64672Z" fill="white"/>
<path d="M655.716 3.61426C660.363 3.78636 666.558 3.95845 674.303 4.13055C682.047 4.30265 689.792 4.3887 697.536 4.3887C705.969 4.3887 714.058 4.30265 721.803 4.13055C729.719 3.95845 735.313 3.87241 738.582 3.87241C763.709 3.87241 782.382 8.60517 794.601 18.0707C806.993 27.5362 813.188 39.7554 813.188 54.7281C813.188 60.9237 811.897 67.4636 809.316 74.3476C806.907 81.0595 802.69 87.3412 796.666 93.1926C790.815 98.8719 782.64 103.519 772.142 107.133C761.816 110.747 748.736 112.554 732.903 112.554H706.055V107.391H730.322C739.787 107.391 746.929 105.068 751.748 100.421C756.739 95.7741 760.095 89.6646 761.816 82.0921C763.709 74.5197 764.656 66.3449 764.656 57.5678C764.656 41.2182 762.504 28.9991 758.202 20.9104C753.899 12.8216 746.585 8.77727 736.259 8.77727C729.891 8.77727 725.761 10.2401 723.868 13.1658C722.147 16.0915 721.286 22.029 721.286 30.9782V156.956C721.286 163.84 721.975 169.003 723.352 172.445C724.728 175.715 727.482 177.866 731.612 178.899C735.743 179.931 741.68 180.534 749.425 180.706V186.385C743.745 186.213 736.431 186.041 727.482 185.869C718.533 185.697 709.153 185.611 699.343 185.611C691.599 185.611 683.94 185.697 676.368 185.869C668.968 186.041 662.084 186.213 655.716 186.385V181.222C661.051 180.878 665.009 180.189 667.591 179.157C670.344 178.124 672.151 176.059 673.012 172.961C674.045 169.863 674.561 165.217 674.561 159.021V30.9782C674.561 24.6105 674.045 19.9638 673.012 17.0381C672.151 13.9403 670.344 11.8751 667.591 10.8425C665.009 9.63777 661.051 8.94937 655.716 8.77727V3.61426Z" fill="white"/>
<path d="M645.955 3.35718V8.52021C642.169 10.2412 638.125 13.5972 633.822 18.5881C629.692 23.4069 625.131 30.7212 620.14 40.5309L572.382 135.014H557.667L497.26 23.2348C494.334 17.5555 491.581 13.7693 488.999 11.8762C486.418 9.81096 484.18 8.77835 482.287 8.77835V3.35718C487.278 3.87348 492.441 4.30373 497.776 4.64793C503.111 4.82004 508.963 4.90609 515.331 4.90609C523.591 4.90609 532.455 4.73399 541.92 4.38978C551.386 4.04559 560.077 3.70138 567.993 3.35718V8.77835C563.691 8.77835 559.733 9.0365 556.118 9.5528C552.676 10.0691 550.181 11.1017 548.632 12.6506C547.255 14.1995 547.427 16.781 549.148 20.3952L589.162 97.066L579.094 110.232L603.36 61.6993C610.072 48.4476 613.686 38.0355 614.203 30.463C614.891 22.7185 613.256 17.2113 609.298 13.9414C605.511 10.4994 600.176 8.69231 593.292 8.52021V3.35718C599.488 3.52929 605.081 3.70139 610.072 3.87349C615.235 4.04559 620.656 4.13164 626.336 4.13164C629.95 4.13164 633.478 4.04559 636.92 3.87349C640.362 3.70139 643.374 3.52929 645.955 3.35718ZM592.776 89.5796V159.022C592.776 165.218 593.206 169.865 594.067 172.962C595.099 176.06 596.906 178.125 599.488 179.158C602.241 180.191 606.286 180.879 611.621 181.223V186.386C606.802 186.042 600.434 185.87 592.518 185.87C584.773 185.698 577.115 185.612 569.542 185.612C561.109 185.612 553.021 185.698 545.276 185.87C537.704 185.87 531.68 186.042 527.205 186.386V181.223C532.541 180.879 536.499 180.191 539.08 179.158C541.834 178.125 543.641 176.06 544.502 172.962C545.534 169.865 546.051 165.218 546.051 159.022V106.101L571.349 122.107L592.776 89.5796Z" fill="white"/>
<path d="M408.728 0.259033C419.398 0.259033 427.659 1.37769 433.51 3.615C439.362 5.6802 444.353 7.9175 448.483 10.3269C450.548 11.5316 452.183 12.4782 453.388 13.1666C454.765 13.6829 456.055 13.941 457.26 13.941C458.981 13.941 460.186 12.9945 460.874 11.1014C461.735 9.20826 462.423 6.3686 462.939 2.58239H468.877C468.705 6.0244 468.447 10.0688 468.103 14.7155C467.93 19.3622 467.758 25.5578 467.586 33.3023C467.586 40.8748 467.586 50.9427 467.586 63.506H461.649C460.96 54.2126 458.809 45.2633 455.195 36.6583C451.581 28.0533 446.59 20.9111 440.222 15.2318C434.027 9.55246 426.368 6.7128 417.247 6.7128C409.33 6.7128 402.79 8.95011 397.627 13.4247C392.464 17.7272 389.883 23.9229 389.883 32.0116C389.883 38.5514 391.518 44.2307 394.788 49.0496C398.057 53.6963 402.962 58.429 409.502 63.2479C416.214 68.0667 424.647 74.0042 434.801 81.0603C442.89 86.3954 450.118 91.7305 456.486 97.0656C462.853 102.401 467.93 108.424 471.717 115.136C475.675 121.848 477.654 129.937 477.654 139.402C477.654 150.761 474.556 160.227 468.361 167.799C462.165 175.199 453.99 180.793 443.836 184.579C433.682 188.193 422.582 190 410.535 190C399.348 190 390.399 188.967 383.687 186.902C377.147 184.837 371.554 182.686 366.907 180.448C363.121 178.039 360.195 176.834 358.13 176.834C356.409 176.834 355.118 177.781 354.258 179.674C353.569 181.567 352.967 184.407 352.451 188.193H346.513C346.857 183.89 347.029 178.899 347.029 173.22C347.202 167.369 347.288 159.882 347.288 150.761C347.46 141.64 347.546 130.023 347.546 115.911H353.483C354.172 127.613 356.065 138.542 359.163 148.696C362.433 158.85 367.337 167.111 373.877 173.478C380.589 179.674 389.452 182.772 400.467 182.772C406.662 182.772 412.084 181.739 416.73 179.674C421.377 177.609 425.077 174.597 427.831 170.639C430.585 166.508 431.961 161.517 431.961 155.666C431.961 148.438 430.326 142.156 427.056 136.821C423.787 131.486 419.312 126.495 413.633 121.848C407.953 117.029 401.327 112.21 393.755 107.392C385.666 102.057 378.094 96.6354 371.038 91.1282C363.981 85.6209 358.302 79.5114 354 72.7994C349.869 65.9154 347.804 57.6546 347.804 48.017C347.804 37.0025 350.644 27.9672 356.323 20.9111C362.002 13.855 369.489 8.69196 378.782 5.42205C388.248 1.98004 398.23 0.259033 408.728 0.259033Z" fill="white"/>
<path d="M256.502 3.35718L318.975 164.702C321.556 170.725 324.224 174.942 326.978 177.351C329.903 179.76 332.485 181.051 334.722 181.223V186.386C329.215 186.042 322.589 185.87 314.844 185.87C307.272 185.698 299.527 185.612 291.611 185.612C283.35 185.612 275.519 185.698 268.119 185.87C260.719 185.87 254.781 186.042 250.307 186.386V181.223C259.084 180.879 264.677 179.416 267.086 176.835C269.496 174.081 268.979 168.316 265.537 159.538L222.684 42.338L227.847 34.5935L190.157 131.916C186.199 142.242 183.789 150.589 182.929 156.957C182.068 163.325 182.499 168.23 184.22 171.672C185.941 175.114 188.608 177.523 192.222 178.9C196.009 180.277 200.483 181.051 205.646 181.223V186.386C199.623 186.042 194.029 185.87 188.866 185.87C183.876 185.698 178.454 185.612 172.603 185.612C169.161 185.612 165.633 185.698 162.019 185.87C158.577 185.87 155.565 186.042 152.983 186.386V181.223C156.77 180.535 160.556 178.125 164.342 173.995C168.3 169.865 172.173 162.722 175.959 152.568L234.043 3.35718C237.485 3.70138 241.185 3.87349 245.143 3.87349C249.274 3.87349 253.06 3.70138 256.502 3.35718ZM269.926 112.039V117.202H192.997L195.578 112.039H269.926Z" fill="white"/>
<path d="M141.209 3.61426C140.52 11.703 140.004 19.5336 139.66 27.106C139.488 34.6784 139.402 40.4438 139.402 44.4021C139.402 47.8441 139.488 51.2001 139.66 54.47C139.832 57.7399 140.004 60.4075 140.176 62.4727H134.239C132.346 49.0488 129.248 38.4646 124.945 30.7201C120.815 22.9756 115.652 17.5544 109.456 14.4566C103.433 11.1867 96.7208 9.55171 89.3204 9.55171H82.3503C77.7036 9.55171 74.0895 9.98197 71.508 10.8425C69.0986 11.5309 67.4636 13.0798 66.6031 15.4892C65.9147 17.8986 65.5705 21.6848 65.5705 26.8478V163.152C65.5705 168.142 65.9147 171.929 66.6031 174.51C67.4636 176.92 69.0986 178.555 71.508 179.415C74.0895 180.103 77.7036 180.448 82.3503 180.448H92.9346C99.6465 180.448 106.014 178.727 112.038 175.285C118.233 171.67 123.741 165.647 128.559 157.214C133.378 148.609 136.992 136.992 139.402 122.364H145.339C144.823 128.215 144.565 135.788 144.565 145.081C144.565 149.211 144.651 155.063 144.823 162.635C144.995 170.208 145.511 178.124 146.372 186.385C137.595 186.041 127.699 185.869 116.684 185.869C105.67 185.697 95.8603 185.611 87.2552 185.611C82.7806 185.611 77.1013 185.611 70.2172 185.611C63.3332 185.611 55.8468 185.697 47.758 185.869C39.6693 185.869 31.4945 185.955 23.2336 186.127C14.9728 186.127 7.22824 186.213 0 186.385V181.222C5.33513 180.878 9.29346 180.189 11.875 179.157C14.6286 178.124 16.4356 176.059 17.2962 172.961C18.3288 169.863 18.8451 165.217 18.8451 159.021V30.9782C18.8451 24.6105 18.3288 19.9638 17.2962 17.0381C16.4356 13.9403 14.6286 11.8751 11.875 10.8425C9.29346 9.63777 5.33513 8.94937 0 8.77727V3.61426C7.40034 3.78636 15.1449 3.95845 23.2336 4.13055C31.4945 4.13055 39.5832 4.2166 47.4999 4.3887C55.5886 4.3887 63.075 4.3887 69.9591 4.3887C77.0152 4.3887 82.7806 4.3887 87.2552 4.3887C95.1719 4.3887 104.121 4.3887 114.103 4.3887C124.257 4.2166 133.292 3.95845 141.209 3.61426ZM102.228 91.9019C102.228 91.9019 102.228 92.7624 102.228 94.4834C102.228 96.2044 102.228 97.0649 102.228 97.0649H57.8259C57.8259 97.0649 57.8259 96.2044 57.8259 94.4834C57.8259 92.7624 57.8259 91.9019 57.8259 91.9019H102.228ZM109.714 57.8259C109.026 67.6357 108.682 75.1221 108.682 80.2851C108.854 85.4481 108.94 90.1809 108.94 94.4834C108.94 98.7859 109.026 103.519 109.198 108.682C109.37 113.845 109.8 121.331 110.489 131.141H104.551C103.691 124.945 101.884 119.266 99.1302 114.103C96.3766 108.94 92.6764 104.809 88.0297 101.712C83.3829 98.6138 77.7036 97.0649 70.9917 97.0649V91.9019C75.9826 91.9019 80.3712 90.8693 84.1574 88.8041C87.9436 86.5667 91.1275 83.7271 93.709 80.2851C96.4626 76.8431 98.6999 73.1429 100.421 69.1846C102.142 65.2263 103.261 61.4401 103.777 57.8259H109.714Z" fill="white"/>
</svg>
